HIERARCHY
ROOT Hips
{
	OFFSET 0.000000 0.000000 0.000000 
	CHANNELS 6 Xposition Yposition Zposition Zrotation Yrotation Xrotation
	JOINT LeftUpLeg
	{
		OFFSET 1.363060 -1.794630 0.839290 
		CHANNELS 3 Zrotation Yrotation Xrotation
		JOINT LeftLeg
		{
			OFFSET 2.448110 -6.726130 0.000000 
			CHANNELS 3 Zrotation Yrotation Xrotation
			JOINT LeftFoot
			{
				OFFSET 2.562200 -7.039590 0.000000 
				CHANNELS 3 Zrotation Yrotation Xrotation
				JOINT LeftToeBase
				{
					OFFSET 0.157640 -0.433110 2.322550 
					CHANNELS 3 Zrotation Yrotation Xrotation
					End Site
					{
						OFFSET 0.000000 0.000000 0.000000 
					}
				}
			}
		}
	}
	JOINT RightUpLeg
	{
		OFFSET -1.305520 -1.794630 0.839290 
		CHANNELS 3 Zrotation Yrotation Xrotation
		JOINT RightLeg
		{
			OFFSET -2.542530 -6.985550 0.000000 
			CHANNELS 3 Zrotation Yrotation Xrotation
			JOINT RightFoot
			{
				OFFSET -2.568260 -7.056230 0.000000 
				CHANNELS 3 Zrotation Yrotation Xrotation
				JOINT RightToeBase
				{
					OFFSET -0.164730 -0.452590 2.363150 
					CHANNELS 3 Zrotation Yrotation Xrotation
					End Site
					{
						OFFSET 0.000000 0.000000 0.000000 
					}
				}
			}
		}
	}
	JOINT Spine
	{
		OFFSET 0.028270 2.035590 -0.193380 
		CHANNELS 3 Zrotation Yrotation Xrotation
		JOINT Spine1
		{
			OFFSET 0.056720 2.048850 -0.042750 
			CHANNELS 3 Zrotation Yrotation Xrotation
			JOINT Neck1
			{
				OFFSET -0.054170 1.746240 0.172020 
				CHANNELS 3 Zrotation Yrotation Xrotation
				JOINT Head
				{
					OFFSET 0.104070 1.761360 -0.123970 
					CHANNELS 3 Zrotation Yrotation Xrotation
					End Site
					{
						OFFSET 0.000000 0.000000 0.000000 
					}
				}
			}
			JOINT LeftArm
			{
				OFFSET 3.362410 1.200890 -0.311210 
				CHANNELS 3 Zrotation Yrotation Xrotation
				JOINT LeftForeArm
				{
					OFFSET 4.983000 -0.000000 -0.000000 
					CHANNELS 3 Zrotation Yrotation Xrotation
					JOINT LeftHand
					{
						OFFSET 3.483560 -0.000000 -0.000000 
						CHANNELS 3 Zrotation Yrotation Xrotation
						JOINT LeftHandIndex1
						{
							OFFSET 0.715260 -0.000000 -0.000000 
							CHANNELS 3 Zrotation Yrotation Xrotation
							End Site
							{
								OFFSET 0.000000 0.000000 0.000000 
							}
						}
					}
				}
			}
			JOINT RightArm
			{
				OFFSET -3.136600 1.374050 -0.404650 
				CHANNELS 3 Zrotation Yrotation Xrotation
				JOINT RightForeArm
				{
					OFFSET -5.241900 -0.000000 -0.000000 
					CHANNELS 3 Zrotation Yrotation Xrotation
					JOINT RightHand
					{
						OFFSET -3.444170 -0.000000 -0.000000 
						CHANNELS 3 Zrotation Yrotation Xrotation
						JOINT RightHandIndex1
						{
							OFFSET -0.622530 -0.000000 -0.000000 
							CHANNELS 3 Zrotation Yrotation Xrotation
							End Site
							{
								OFFSET 0.000000 0.000000 0.000000 
							}
						}
					}
				}
			}
		}
	}
}
MOTION
Frames: 10
Frame Time: 0.041667
-0.726223 18.284400 6.004748 -6.737518 -1.630011 -1.118168 -7.912950 -6.915823 -5.490534 1.636561 8.337096 26.889998 -0.020543 3.356343 -11.761362 8.790200 -16.670800 -55.361900 21.927659 -0.094087 9.129366 0.585953 0.884778 1.739263 0.726025 -6.958983 -12.153690 -0.706500 5.372100 -14.972900 6.825348 0.702931 16.109098 -5.269106 0.673524 -17.269989 6.470959 -4.981598 33.400602 1.214600 -1.362600 10.571100 -94.154553 9.098498 25.878760 23.532188 -32.819371 -5.929864 0.407332 0.019742 13.569882 -7.125000 0.000000 0.000000 95.926472 -11.094728 23.914213 -30.635832 39.152849 -8.734085 1.091480 -3.209755 20.280912 7.125000 0.000000 0.000000 
-0.723762 18.284990 6.001697 -6.753094 -1.609932 -1.059190 -7.909178 -6.922312 -5.547332 1.637996 8.347402 26.908097 -0.019784 3.357976 -11.769648 8.801300 -16.678200 -55.400500 21.935338 -0.095369 9.078553 0.585716 0.881301 1.738092 0.722106 -6.944052 -12.159847 -0.705900 5.370000 -14.966900 6.890467 0.722223 15.801178 -5.285585 0.673140 -17.243085 6.403966 -4.951196 33.414201 1.196700 -1.355100 10.549100 -94.164450 9.153395 25.857228 23.523594 -32.800723 -5.924470 0.406037 0.018269 13.590671 -7.125000 0.000000 0.000000 95.946349 -11.192592 23.758620 -30.662424 39.151354 -8.731203 1.107927 -3.204178 20.463802 7.125000 0.000000 0.000000 
-0.722975 18.284400 5.996973 -6.772530 -1.601440 -1.023505 -7.899673 -6.908511 -5.589505 1.638668 8.351821 26.915927 -0.013361 3.341554 -11.796246 8.809400 -16.683500 -55.428500 21.943600 -0.089885 9.047233 0.585733 0.877672 1.736636 0.721792 -6.948748 -12.167421 -0.711600 5.391300 -15.028000 7.067986 0.741306 15.545597 -5.322081 0.678340 -17.246200 6.366027 -4.917282 33.437317 1.197800 -1.347300 10.542300 -94.191461 9.174618 25.869942 23.507987 -32.781485 -5.918207 0.406239 0.015533 13.560728 -7.125000 0.000000 0.000000 95.934233 -11.259363 23.635690 -30.691503 39.158545 -8.736481 1.114192 -3.199624 20.682942 7.125000 0.000000 0.000000 
-0.722975 18.284498 5.992446 -6.785595 -1.588930 -1.017369 -7.892949 -6.879913 -5.623992 1.642484 8.354984 26.928117 -0.000533 3.288443 -11.783755 8.811600 -16.685000 -55.436400 21.943044 -0.093675 9.030894 0.585895 0.875512 1.735585 0.725754 -6.971472 -12.166981 -0.706800 5.373500 -14.976900 7.241466 0.738278 15.441680 -5.345274 0.680072 -17.262369 6.380164 -4.890465 33.435070 1.213800 -1.336900 10.539400 -94.225139 9.163857 25.881987 23.499679 -32.773840 -5.916000 0.406795 0.012515 13.530828 -7.125000 0.000000 0.000000 95.883574 -11.280457 23.646166 -30.713171 39.172126 -8.748866 1.110002 -3.198190 20.712873 7.125000 0.000000 0.000000 
-0.722483 18.285285 5.989493 -6.785953 -1.563443 -1.016189 -7.890202 -6.883735 -5.640503 1.645113 8.361243 26.942200 0.002055 3.274498 -11.766704 8.817100 -16.688600 -55.455400 21.941039 -0.117391 9.022137 0.585571 0.874714 1.735786 0.719671 -6.946827 -12.182027 -0.682900 5.283700 -14.719500 7.226411 0.751300 15.339653 -5.340529 0.682549 -17.273604 6.365490 -4.874930 33.439158 1.209600 -1.330000 10.531700 -94.207652 9.181118 25.935467 23.503607 -32.774598 -5.917092 0.406192 0.012148 13.534736 -7.125000 0.000000 0.000000 95.881508 -11.317606 23.639851 -30.727718 39.183633 -8.760147 1.104654 -3.198567 20.665916 7.125000 0.000000 0.000000 
-0.721007 18.285679 5.986245 -6.802160 -1.553046 -1.009908 -7.868227 -6.891298 -5.662174 1.646936 8.369900 26.958677 -0.002169 3.291117 -11.762380 8.820100 -16.690600 -55.465900 21.962725 -0.127774 9.010901 0.585376 0.874812 1.735948 0.718423 -6.935267 -12.168578 -0.674700 5.252500 -14.630200 7.146771 0.782102 15.260821 -5.366748 0.684328 -17.289295 6.438330 -4.908844 33.534329 1.225300 -1.333300 10.565600 -94.174570 9.178364 26.000668 23.499533 -32.770925 -5.913759 0.404054 0.010538 13.539766 -7.125000 0.000000 0.000000 95.921430 -11.345499 23.613002 -30.734959 39.189278 -8.766458 1.092895 -3.198287 20.646550 7.125000 0.000000 0.000000 
-0.718546 18.286073 5.982407 -6.850191 -1.566408 -0.990092 -7.837012 -6.877804 -5.701567 1.649941 8.376840 26.977329 -0.010027 3.317202 -11.747352 8.818800 -16.689700 -55.461500 21.999201 -0.104850 8.986564 0.585511 0.873914 1.734942 0.724211 -6.954966 -12.139453 -0.680400 5.274100 -14.691900 7.268948 0.787257 15.208964 -5.443634 0.677235 -17.298780 6.627259 -4.954017 33.678017 1.285000 -1.331300 10.628000 -94.200908 9.147960 26.017285 23.494271 -32.770449 -5.908937 0.399521 0.007605 13.486678 -7.125000 0.000000 0.000000 95.902405 -11.345997 23.663730 -30.737573 39.186359 -8.769900 1.083393 -3.197520 20.621228 7.125000 0.000000 0.000000 
-0.717168 18.286663 5.978175 -6.888746 -1.558752 -0.957327 -7.822779 -6.886615 -5.749441 1.652281 8.382361 26.994300 -0.019504 3.347243 -11.726679 8.827100 -16.695200 -55.490400 22.020632 -0.094449 8.944472 0.585744 0.871665 1.733668 0.726485 -6.970772 -12.143508 -0.674400 5.251300 -14.626800 7.478838 0.767343 15.106102 -5.490833 0.666776 -17.298312 6.690407 -4.935896 33.771391 1.316400 -1.316100 10.663000 -94.251886 9.157302 25.997175 23.515724 -32.792335 -5.916134 0.395656 0.006920 13.458575 -7.125000 0.000000 0.000000 95.828847 -11.342749 23.765678 -30.733617 39.173386 -8.766562 1.084388 -3.196278 20.583542 7.125000 0.000000 0.000000 
-0.716873 18.287451 5.974435 -6.919550 -1.530304 -0.914531 -7.797179 -6.912820 -5.800996 1.653834 8.387671 27.002438 -0.014843 3.320580 -11.692934 8.823900 -16.693100 -55.479100 22.051260 -0.107535 8.896639 0.586348 0.869488 1.732549 0.732979 -7.008239 -12.146477 -0.677700 5.263800 -14.662600 7.578992 0.759211 14.923280 -5.517111 0.655845 -17.277242 6.657578 -4.897392 33.818357 1.314100 -1.301000 10.666900 -94.249091 9.239658 26.019355 23.567961 -32.840139 -5.939957 0.396522 0.008561 13.447158 -7.125000 0.000000 0.000000 95.791367 -11.344746 23.827856 -30.677614 39.117573 -8.741645 1.088182 -3.199900 20.563204 7.125000 0.000000 0.000000 
-0.716283 18.287844 5.971876 -6.912640 -1.529544 -0.874920 -7.790131 -6.901616 -5.843874 1.654623 8.391268 27.001677 -0.000491 3.258000 -11.660153 8.801200 -16.678100 -55.399900 22.058999 -0.098628 8.861824 0.586735 0.868292 1.731676 0.741183 -7.041705 -12.120646 -0.689500 5.308400 -14.790400 7.498099 0.787079 14.761594 -5.518728 0.659088 -17.238126 6.653329 -4.898830 33.841328 1.308700 -1.300100 10.657800 -94.181835 9.318164 26.127411 23.597866 -32.862626 -5.954623 0.400338 0.010718 13.360602 -7.125000 0.000000 0.000000 95.816322 -11.374722 23.817432 -30.628386 39.070442 -8.722093 1.093023 -3.205205 20.547117 7.125000 0.000000 0.000000 
